<?xml version="1.0" standalone="no"?>
<!DOCTYPE svg PUBLIC "-//W3C//DTD SVG 20010904//EN"
 "http://www.w3.org/TR/2001/REC-SVG-20010904/DTD/svg10.dtd">
<svg version="1.0" xmlns="http://www.w3.org/2000/svg"
 width="700.000000pt" height="700.000000pt" viewBox="0 0 700.000000 700.000000"
 preserveAspectRatio="xMidYMid meet">
<metadata>
Created by potrace 1.14, written by Peter Selinger 2001-2017
</metadata>
<g transform="translate(0.000000,700.000000) scale(0.100000,-0.100000)"
fill="#000000" stroke="none">
<path d="M3485 5200 c-88 -11 -171 -72 -204 -150 -40 -92 -42 -148 -39 -1140
3 -940 3 -956 24 -1003 29 -69 64 -108 120 -137 59 -29 139 -37 220 -20 73 15
121 60 156 147 l23 58 2 940 c2 532 -1 973 -7 1015 -21 169 -75 255 -178 284
-32 9 -60 15 -63 15 -2 -1 -26 -5 -54 -9z"/>
<path d="M5074 4611 c-17 -5 -57 -24 -90 -44 -32 -20 -133 -66 -224 -102 -91
-36 -177 -74 -191 -85 -45 -32 -240 -127 -310 -149 -138 -45 -179 -103 -179
-256 0 -115 21 -177 78 -234 40 -39 62 -51 147 -80 136 -44 243 -93 302 -135
61 -44 152 -85 313 -143 205 -73 232 -79 285 -65 59 16 101 47 130 97 36 60
47 124 34 187 -23 110 -84 165 -243 218 -78 26 -99 38 -140 79 -55 56 -55 66
-2 122 30 31 49 40 125 59 92 23 167 62 196 104 30 42 75 175 75 221 0 88 -68
182 -148 205 -42 11 -112 12 -158 1z"/>
<path d="M1700 3840 c-97 -16 -151 -54 -192 -134 -30 -59 -23 -193 15 -265 15
-30 39 -88 53 -130 14 -42 36 -94 49 -116 12 -22 34 -73 48 -114 15 -41 39
-88 55 -105 15 -17 33 -43 40 -58 6 -15 26 -44 45 -65 19 -21 48 -65 65 -99
17 -33 38 -67 48 -74 9 -8 28 -32 41 -53 13 -21 39 -47 58 -58 19 -11 37 -30
41 -41 5 -18 87 -103 204 -213 19 -18 49 -40 65 -48 17 -9 36 -26 43 -39 19
-35 170 -136 238 -159 21 -7 53 -25 69 -40 17 -15 44 -34 60 -42 17 -8 48 -29
70 -47 50 -40 87 -56 178 -74 40 -9 99 -26 132 -40 33 -13 98 -34 145 -46 47
-13 106 -34 132 -47 71 -35 159 -52 303 -59 200 -10 286 14 363 101 68 77 88
213 51 340 -16 59 -80 114 -168 148 -63 24 -97 30 -230 38 -311 18 -388 31
-446 75 -16 12 -59 37 -95 54 -36 18 -81 40 -100 50 -19 10 -55 23 -80 29 -84
22 -125 43 -176 89 -104 96 -137 122 -151 122 -13 0 -122 107 -200 199 -21 24
-58 64 -82 88 -24 25 -63 82 -85 125 -90 175 -102 197 -128 230 -24 31 -66
142 -84 223 -11 50 -94 202 -118 218 -48 32 -193 51 -276 37z"/>
</g>
</svg>
